<?xml version="1.0" encoding="UTF-8"?>
<svg id="object" xmlns="http://www.w3.org/2000/svg" viewBox="0 0 1372.73 1239.39">
  <defs>
    <style>
      .cls-1 {
        fill: #fff;
        stroke-width: 0px;
      }
    </style>
  </defs>
  <g>
    <path class="cls-1" d="M100.73,1131.28v-28.89h136.57c-2.04,71.79-56.32,111.47-113.81,111.47s-108.26-50.78-108.26-109.14c0-70.04,53.69-114.98,108.26-114.98,41.44,0,77.04,19.55,98.93,58.36h-36.77c-18.38-21.01-36.77-29.47-60.7-29.47-42.02,0-78.21,39.69-78.21,82.29,0,45.52,35.89,84.04,79.37,84.04,34.14,0,61.57-18.97,75.29-53.69h-100.68Z"/>
    <path class="cls-1" d="M288.37,1142.07c7,26.85,28.31,44.06,53.11,44.06,18.97,0,36.77-9.92,46.11-27.14h30.35c-12.55,33.27-42.9,54.86-77.62,54.86-45.52,0-82.29-40.27-82.29-83.46,0-51.07,38.52-86.67,81.42-86.67,47.57,0,83.75,36.77,83.75,83.17,0,4.96,0,9.63-.88,15.17h-133.94ZM392.85,1118.73c-2.33-27.43-26.56-47.27-52.53-47.27s-49.61,19.55-51.94,47.27h104.47Z"/>
    <path class="cls-1" d="M566.48,1209.78v-88.13c0-34.14-13.42-50.19-40.27-50.19s-42.61,19.55-42.61,49.9v88.42h-30.35v-161.67h28.31v17.22h.58c11.96-15.47,28.6-21.59,47.27-21.59,38.81,0,67.41,24.51,67.41,69.16v96.88h-30.35Z"/>
    <path class="cls-1" d="M657.82,1142.07c7,26.85,28.31,44.06,53.11,44.06,18.97,0,36.77-9.92,46.11-27.14h30.35c-12.55,33.27-42.9,54.86-77.62,54.86-45.52,0-82.29-40.27-82.29-83.46,0-51.07,38.52-86.67,81.42-86.67,47.57,0,83.75,36.77,83.75,83.17,0,4.96,0,9.63-.88,15.17h-133.94ZM762.29,1118.73c-2.33-27.43-26.56-47.27-52.53-47.27s-49.61,19.55-51.94,47.27h104.47Z"/>
    <path class="cls-1" d="M822.99,1209.78v-161.67h28.31v14.59h.58c7.3-10.8,19.84-17.8,41.15-18.97v31.22c-26.26.88-39.69,16.93-39.69,44.06v90.76h-30.35Z"/>
    <path class="cls-1" d="M1046.82,1209.78v-25.1h-.58c-11.38,19.26-31.81,29.18-54.86,29.18-47.27,0-85.79-35.6-85.79-82.29,0-51.65,37.06-87.84,84.63-87.84,23.64,0,43.48,8.75,56.03,27.14h.58v-22.76h30.35v161.67h-30.35ZM1047.4,1129.23c0-31.52-22.76-57.78-56.32-57.78-30.35,0-55.15,25.97-55.15,57.78s24.8,56.9,55.15,56.9,56.32-26.26,56.32-56.9Z"/>
    <path class="cls-1" d="M1121.23,1209.78v-133.94h-21.89v-27.72h21.89v-54.28h30.35v54.28h26.56v27.72h-26.56v133.94h-30.35Z"/>
    <path class="cls-1" d="M1220.74,1142.07c7,26.85,28.31,44.06,53.11,44.06,18.97,0,36.77-9.92,46.11-27.14h30.35c-12.55,33.27-42.9,54.86-77.62,54.86-45.52,0-82.29-40.27-82.29-83.46,0-51.07,38.52-86.67,81.42-86.67,47.57,0,83.75,36.77,83.75,83.17,0,4.96,0,9.63-.88,15.17h-133.94ZM1325.21,1118.73c-2.33-27.43-26.56-47.27-52.53-47.27s-49.61,19.55-51.94,47.27h104.47Z"/>
  </g>
  <g>
    <path class="cls-1" d="M253.39,824.52c-9.77,0-19.68-2.11-29.07-6.56-33.08-15.66-47.83-54.69-33.39-88.32L470.67,78.02c14.86-34.62,48.82-56.99,86.49-56.99,0,0,0,0,0,0,37.68,0,71.63,22.37,86.49,57l250.97,584.58c6.74,15.71,22.14,25.85,39.23,25.85,23.54,0,42.7-19.15,42.7-42.7v-372.58c0-37.57,30.46-68.03,68.03-68.03s68.03,30.46,68.03,68.03v372.58c0,98.56-80.19,178.75-178.75,178.75-71.55,0-136.02-42.48-164.25-108.23l-212.44-494.84-117.84,274.48c37.81-15.85,78.67-27.82,122.29-35.8,36.96-6.76,72.39,17.72,79.15,54.68,6.76,36.96-17.72,72.39-54.68,79.15-127.58,23.33-216.64,86.75-272.29,193.88-12.08,23.25-35.78,36.68-60.41,36.68Z"/>
    <circle class="cls-1" cx="1045.08" cy="90.36" r="72.28"/>
  </g>
</svg>