<?xml version="1.0" encoding="UTF-8"?>
<svg id="Layer_1" data-name="Layer 1" xmlns="http://www.w3.org/2000/svg" xmlns:xlink="http://www.w3.org/1999/xlink" viewBox="0 0 559.72 288">
  <defs>
    <style>
      .cls-1, .cls-2 {
        fill: #fff;
      }

      .cls-3 {
        mask: url(#mask-2);
      }

      .cls-4 {
        mask: url(#mask-3);
      }

      .cls-5 {
        clip-path: url(#clippath-1);
      }

      .cls-2, .cls-6, .cls-7 {
        stroke-width: 0px;
      }

      .cls-6 {
        fill: url(#linear-gradient);
      }

      .cls-6, .cls-7 {
        mix-blend-mode: multiply;
      }

      .cls-8 {
        clip-path: url(#clippath);
      }

      .cls-9 {
        filter: url(#luminosity-noclip);
      }

      .cls-10 {
        mask: url(#mask-1);
      }

      .cls-11 {
        mask: url(#mask);
      }

      .cls-7 {
        fill: url(#linear-gradient-2);
      }

      .cls-12 {
        filter: url(#luminosity-noclip-3);
      }
    </style>
    <clipPath id="clippath">
      <path class="cls-2" d="M214.2,25.36v.11c-29.89,1.18-53.79,25.74-53.79,55.91s25,55.92,55.85,56.02h0s18.6,0,18.6,0h51.55c12.15,0,22.06,9.83,22.06,22.06s-9.91,22.06-22.06,22.06h-51.55s.02.03.03.05h-101.98c-5.67-7.27-14.55-11.91-24.54-11.91-17.26,0-31.25,13.99-31.25,31.25s13.99,31.25,31.25,31.25c11.99,0,22.46-6.71,27.73-16.62h152.57v-.16c29.88-1.2,53.76-25.75,53.76-55.91s-23.9-54.73-53.79-55.91v-.11h-72.21c-12.15,0-22.06-9.83-22.06-22.06s9.91-22.06,22.06-22.06h126V25.36h-128.23ZM97.82,200.92c0-5.83,4.72-10.55,10.55-10.55,1.6,0,3.12.32,4.48.96,3.6,1.68,6.15,5.35,6.15,9.59s-2.56,7.91-6.15,9.59c-1.36.64-2.88.96-4.48.96-5.83,0-10.55-4.72-10.55-10.55ZM410.29,103.48h110.34v33.97h-110.34v27.7c0,9.59,7.83,17.5,17.42,17.5h92.92v33.89h-92.92c-28.37,0-51.31-23.02-51.31-51.39v-61.67h33.89ZM43.23,137.41v69.02h-.08v9.03H9.35V76.8c0-28.37,22.94-51.47,51.31-51.47h88c-8.07,9.75-14.15,21.34-17.42,33.97H60.66c-9.67,0-17.42,7.91-17.42,17.5v26.64h88.01c3.28,12.63,9.35,24.22,17.42,33.97H43.23ZM520.61,11.1c-11.03,0-20.62,5.67-26.21,14.23h-117.97v33.97h117.97c5.51,8.63,15.19,14.31,26.21,14.31,17.26,0,31.33-13.99,31.33-31.25s-14.07-31.25-31.33-31.25ZM520.61,52.9c-5.83,0-10.55-4.72-10.55-10.55s4.72-10.55,10.55-10.55,10.55,4.72,10.55,10.55-4.72,10.55-10.55,10.55Z"/>
    </clipPath>
    <filter id="luminosity-noclip" x="-74.72" y="-85.87" width="607.59" height="247.85" color-interpolation-filters="sRGB" filterUnits="userSpaceOnUse">
      <feFlood flood-color="#fff" result="bg"/>
      <feBlend in="SourceGraphic" in2="bg"/>
    </filter>
    <filter id="luminosity-noclip-2" x="-74.72" y="-7559.36" width="607.59" height="32766" color-interpolation-filters="sRGB" filterUnits="userSpaceOnUse">
      <feFlood flood-color="#fff" result="bg"/>
      <feBlend in="SourceGraphic" in2="bg"/>
    </filter>
    <mask id="mask-1" x="-74.72" y="-7559.36" width="607.59" height="32766" maskUnits="userSpaceOnUse"/>
    <linearGradient id="linear-gradient" x1="196.35" y1="281.04" x2="196.35" y2="48.92" gradientTransform="translate(44.29 -21.71) scale(.94 1.02)" gradientUnits="userSpaceOnUse">
      <stop offset="0" stop-color="#707070"/>
      <stop offset="1" stop-color="#000"/>
    </linearGradient>
    <mask id="mask" x="-74.72" y="-85.87" width="607.59" height="247.85" maskUnits="userSpaceOnUse">
      <g class="cls-9">
        <g class="cls-10">
          <ellipse class="cls-6" cx="229.07" cy="38.06" rx="305.34" ry="120.01" transform="translate(-2.79 25.32) rotate(-6.29)"/>
        </g>
      </g>
    </mask>
    <clipPath id="clippath-1">
      <path class="cls-2" d="M27.57,248.81v5.38h-11.46v6.12h8.85v5.14h-8.85v11.3h-6.76v-27.94h18.22ZM51.1,250.21c2.15,1.23,3.84,2.92,5.08,5.1,1.24,2.18,1.86,4.63,1.86,7.37s-.62,5.2-1.88,7.39c-1.25,2.18-2.95,3.89-5.1,5.12-2.15,1.23-4.53,1.84-7.13,1.84s-4.99-.61-7.14-1.84c-2.15-1.23-3.85-2.93-5.1-5.12-1.25-2.18-1.88-4.64-1.88-7.39s.62-5.2,1.88-7.37c1.25-2.18,2.95-3.87,5.1-5.1,2.15-1.23,4.53-1.84,7.14-1.84s5.02.61,7.17,1.84ZM38.65,256.81c-1.3,1.44-1.96,3.4-1.96,5.87s.65,4.4,1.96,5.85c1.3,1.45,3.06,2.18,5.28,2.18s3.94-.73,5.25-2.18c1.32-1.45,1.98-3.4,1.98-5.85s-.65-4.4-1.96-5.85c-1.3-1.45-3.06-2.18-5.27-2.18s-3.97.72-5.28,2.15ZM75.78,276.75l-6.05-10.56h-1.54v10.56h-6.76v-27.94h11.54c2.21,0,4.08.38,5.61,1.15,1.53.76,2.68,1.81,3.44,3.14.77,1.34,1.15,2.85,1.15,4.57,0,2.03-.56,3.76-1.68,5.18-1.12,1.42-2.75,2.4-4.88,2.92l6.64,10.99h-7.47ZM68.19,261.57h4.19c1.34,0,2.33-.3,2.97-.89.63-.6.95-1.47.95-2.63,0-1.1-.32-1.97-.97-2.6-.65-.64-1.63-.95-2.95-.95h-4.19v7.07ZM112.64,272.95c-.75,1.24-1.86,2.23-3.32,2.96-1.46.74-3.23,1.11-5.32,1.11-3.14,0-5.72-.76-7.75-2.29-2.03-1.53-3.14-3.66-3.32-6.41h7.2c.1,1.05.48,1.89,1.12,2.49.65.61,1.47.9,2.47.9.87,0,1.55-.24,2.06-.71.5-.47.75-1.11.75-1.9,0-.71-.23-1.3-.69-1.78-.46-.47-1.03-.86-1.72-1.16-.69-.31-1.63-.67-2.85-1.08-1.76-.61-3.21-1.19-4.33-1.76-1.12-.57-2.08-1.41-2.88-2.53-.81-1.12-1.21-2.58-1.21-4.37,0-1.66.42-3.1,1.27-4.31.84-1.21,2.01-2.14,3.5-2.78,1.49-.64,3.19-.97,5.12-.97,3.11,0,5.58.74,7.41,2.22,1.83,1.48,2.86,3.51,3.1,6.08h-7.31c-.13-.92-.47-1.65-1.01-2.19-.54-.53-1.27-.81-2.19-.81-.79,0-1.43.21-1.92.64-.49.42-.73,1.04-.73,1.85,0,.66.22,1.22.65,1.68.43.46.98.83,1.64,1.12s1.61.66,2.85,1.11c1.79.61,3.25,1.2,4.39,1.8,1.14.59,2.11,1.45,2.93,2.59.81,1.13,1.22,2.61,1.22,4.42,0,1.48-.37,2.84-1.12,4.07ZM137.58,250.21c2.15,1.23,3.84,2.92,5.08,5.1,1.24,2.18,1.86,4.63,1.86,7.37s-.62,5.2-1.88,7.39c-1.25,2.18-2.95,3.89-5.1,5.12-2.15,1.23-4.53,1.84-7.13,1.84s-4.99-.61-7.14-1.84c-2.15-1.23-3.85-2.93-5.1-5.12-1.25-2.18-1.88-4.64-1.88-7.39s.62-5.2,1.88-7.37c1.25-2.18,2.95-3.87,5.1-5.1,2.15-1.23,4.53-1.84,7.14-1.84s5.02.61,7.17,1.84ZM125.13,256.81c-1.3,1.44-1.96,3.4-1.96,5.87s.65,4.4,1.96,5.85c1.3,1.45,3.06,2.18,5.28,2.18s3.94-.73,5.25-2.18c1.32-1.45,1.98-3.4,1.98-5.85s-.65-4.4-1.96-5.85c-1.3-1.45-3.06-2.18-5.27-2.18s-3.97.72-5.28,2.15ZM166.13,248.81v5.38h-11.46v6.12h8.85v5.14h-8.85v11.3h-6.76v-27.94h18.22ZM189.29,248.81v5.38h-7.59v22.56h-6.79v-22.56h-7.51v-5.38h21.89ZM229.72,248.81l-6.68,27.94h-8.38l-4.47-18.7-4.5,18.7h-8.38l-6.68-27.94h7.35l3.6,20.23,4.9-20.23h7.39l4.9,20.23,3.63-20.23h7.31ZM250.19,271.65h-10.47l-1.74,5.1h-7.12l10.24-27.74h7.79l10.23,27.74h-7.19l-1.74-5.1ZM248.45,266.52l-3.48-10.28-3.52,10.28h6.99ZM275.68,276.75l-6.05-10.56h-1.54v10.56h-6.76v-27.94h11.54c2.21,0,4.08.38,5.61,1.15,1.53.76,2.68,1.81,3.44,3.14.77,1.34,1.15,2.85,1.15,4.57,0,2.03-.56,3.76-1.68,5.18-1.12,1.42-2.75,2.4-4.88,2.92l6.64,10.99h-7.47ZM268.09,261.57h4.19c1.34,0,2.33-.3,2.97-.89.63-.6.95-1.47.95-2.63,0-1.1-.32-1.97-.97-2.6-.65-.64-1.63-.95-2.95-.95h-4.19v7.07ZM292.84,254.19v5.85h9.45v5.1h-9.45v6.2h10.63v5.42h-17.39v-27.94h17.39v5.38h-10.63ZM321.17,254.19v5.85h9.45v5.1h-9.45v6.2h10.63v5.42h-17.39v-27.94h17.39v5.38h-10.63ZM360.06,276.75h-6.76l-11.31-17.15v17.15h-6.76v-27.94h6.76l11.31,17.31v-17.31h6.76v27.94ZM386.07,251.1c2.26,1.71,3.67,4.03,4.23,6.96h-7.15c-.48-1-1.2-1.79-2.17-2.39-.98-.59-2.15-.89-3.52-.89-2.13,0-3.85.72-5.14,2.15-1.29,1.44-1.94,3.38-1.94,5.83,0,2.66.68,4.7,2.04,6.12,1.36,1.42,3.29,2.14,5.79,2.14,1.61,0,3.02-.44,4.23-1.33,1.21-.88,2.07-2.14,2.57-3.77h-8.54v-4.86h14.19v6.67c-.53,1.63-1.37,3.15-2.53,4.55-1.16,1.39-2.64,2.53-4.45,3.4-1.8.87-3.87,1.3-6.19,1.3-2.82,0-5.28-.6-7.39-1.8-2.11-1.19-3.74-2.88-4.88-5.04-1.15-2.16-1.72-4.62-1.72-7.39s.57-5.23,1.72-7.4c1.14-2.15,2.77-3.84,4.86-5.04,2.09-1.19,4.54-1.79,7.33-1.79,3.51,0,6.39.86,8.66,2.56ZM400.81,248.81v27.94h-6.76v-27.94h6.76ZM429.9,276.75h-6.76l-11.31-17.15v17.15h-6.76v-27.94h6.76l11.31,17.31v-17.31h6.76v27.94ZM440.92,254.19v5.85h9.45v5.1h-9.45v6.2h10.63v5.42h-17.39v-27.94h17.39v5.38h-10.63ZM461.75,254.19v5.85h9.45v5.1h-9.45v6.2h10.63v5.42h-17.39v-27.94h17.39v5.38h-10.63ZM490.17,276.75l-6.05-10.56h-1.54v10.56h-6.76v-27.94h11.54c2.21,0,4.08.38,5.61,1.15,1.53.76,2.68,1.81,3.44,3.14.77,1.34,1.15,2.85,1.15,4.57,0,2.03-.56,3.76-1.68,5.18-1.12,1.42-2.75,2.4-4.88,2.92l6.64,10.99h-7.47ZM482.58,261.57h4.19c1.34,0,2.33-.3,2.97-.89.63-.6.95-1.47.95-2.63,0-1.1-.32-1.97-.97-2.6-.65-.64-1.63-.95-2.95-.95h-4.19v7.07ZM519.51,272.95c-.75,1.24-1.86,2.23-3.32,2.96-1.46.74-3.23,1.11-5.32,1.11-3.14,0-5.72-.76-7.75-2.29-2.03-1.53-3.14-3.66-3.32-6.41h7.2c.1,1.05.48,1.89,1.12,2.49.65.61,1.47.9,2.47.9.87,0,1.55-.24,2.06-.71.5-.47.75-1.11.75-1.9,0-.71-.23-1.3-.69-1.78-.46-.47-1.03-.86-1.72-1.16-.69-.31-1.63-.67-2.85-1.08-1.76-.61-3.21-1.19-4.33-1.76-1.12-.57-2.08-1.41-2.88-2.53-.81-1.12-1.21-2.58-1.21-4.37,0-1.66.42-3.1,1.27-4.31.84-1.21,2.01-2.14,3.5-2.78,1.49-.64,3.19-.97,5.12-.97,3.11,0,5.58.74,7.41,2.22,1.83,1.48,2.86,3.51,3.1,6.08h-7.31c-.13-.92-.47-1.65-1.01-2.19-.54-.53-1.27-.81-2.19-.81-.79,0-1.43.21-1.92.64-.49.42-.73,1.04-.73,1.85,0,.66.22,1.22.65,1.68.43.46.98.83,1.64,1.12s1.61.66,2.85,1.11c1.79.61,3.25,1.2,4.39,1.8,1.14.59,2.11,1.45,2.93,2.59.81,1.13,1.22,2.61,1.22,4.42,0,1.48-.37,2.84-1.12,4.07Z"/>
    </clipPath>
    <filter id="luminosity-noclip-3" x="9.35" y="246.42" width="511.29" height="20.1" color-interpolation-filters="sRGB" filterUnits="userSpaceOnUse">
      <feFlood flood-color="#fff" result="bg"/>
      <feBlend in="SourceGraphic" in2="bg"/>
    </filter>
    <filter id="luminosity-noclip-4" x="9.35" y="-7559.36" width="511.29" height="32766" color-interpolation-filters="sRGB" filterUnits="userSpaceOnUse">
      <feFlood flood-color="#fff" result="bg"/>
      <feBlend in="SourceGraphic" in2="bg"/>
    </filter>
    <mask id="mask-3" x="9.35" y="-7559.36" width="511.29" height="32766" maskUnits="userSpaceOnUse"/>
    <linearGradient id="linear-gradient-2" x1="264.99" y1="277.53" x2="264.99" y2="256" gradientUnits="userSpaceOnUse">
      <stop offset="0" stop-color="#707070"/>
      <stop offset="1" stop-color="#000"/>
    </linearGradient>
    <mask id="mask-2" x="9.35" y="246.42" width="511.29" height="20.1" maskUnits="userSpaceOnUse">
      <g class="cls-12">
        <g class="cls-4">
          <rect class="cls-7" x="9.35" y="246.42" width="511.29" height="20.1"/>
        </g>
      </g>
    </mask>
  </defs>
  <g>
    <path class="cls-2" d="M214.2,25.36v.11c-29.89,1.18-53.79,25.74-53.79,55.91s25,55.92,55.85,56.02h0s18.6,0,18.6,0h51.55c12.15,0,22.06,9.83,22.06,22.06s-9.91,22.06-22.06,22.06h-51.55s.02.03.03.05h-101.98c-5.67-7.27-14.55-11.91-24.54-11.91-17.26,0-31.25,13.99-31.25,31.25s13.99,31.25,31.25,31.25c11.99,0,22.46-6.71,27.73-16.62h152.57v-.16c29.88-1.2,53.76-25.75,53.76-55.91s-23.9-54.73-53.79-55.91v-.11h-72.21c-12.15,0-22.06-9.83-22.06-22.06s9.91-22.06,22.06-22.06h126V25.36h-128.23ZM97.82,200.92c0-5.83,4.72-10.55,10.55-10.55,1.6,0,3.12.32,4.48.96,3.6,1.68,6.15,5.35,6.15,9.59s-2.56,7.91-6.15,9.59c-1.36.64-2.88.96-4.48.96-5.83,0-10.55-4.72-10.55-10.55Z"/>
    <path class="cls-2" d="M400.09,103.48h-23.68v61.67c0,28.37,22.94,51.39,51.31,51.39h92.92v-33.89h-92.92c-9.59,0-17.42-7.91-17.42-17.5v-27.7h110.34v-33.97h-120.55Z"/>
    <path class="cls-2" d="M148.67,137.41c-8.07-9.75-14.15-21.34-17.42-33.97H43.23v-26.64c0-9.59,7.75-17.5,17.42-17.5h70.57c3.28-12.63,9.35-24.22,17.42-33.97H60.66c-28.37,0-51.31,23.1-51.31,51.47v138.67h33.81v-9.03h.08v-69.02h105.43Z"/>
    <path class="cls-2" d="M520.61,11.1c-11.03,0-20.62,5.67-26.21,14.23h-117.97v33.97h117.97c5.51,8.63,15.19,14.31,26.21,14.31,17.26,0,31.33-13.99,31.33-31.25s-14.07-31.25-31.33-31.25ZM520.61,52.9c-5.83,0-10.55-4.72-10.55-10.55s4.72-10.55,10.55-10.55,10.55,4.72,10.55,10.55-4.72,10.55-10.55,10.55Z"/>
  </g>
  <g>
    <g>
      <path class="cls-1" d="M214.2,25.36v.11c-29.89,1.18-53.79,25.74-53.79,55.91s25,55.92,55.85,56.02h0s18.6,0,18.6,0h51.55c12.15,0,22.06,9.83,22.06,22.06s-9.91,22.06-22.06,22.06h-51.55s.02.03.03.05h-101.98c-5.67-7.27-14.55-11.91-24.54-11.91-17.26,0-31.25,13.99-31.25,31.25s13.99,31.25,31.25,31.25c11.99,0,22.46-6.71,27.73-16.62h152.57v-.16c29.88-1.2,53.76-25.75,53.76-55.91s-23.9-54.73-53.79-55.91v-.11h-72.21c-12.15,0-22.06-9.83-22.06-22.06s9.91-22.06,22.06-22.06h126V25.36h-128.23ZM97.82,200.92c0-5.83,4.72-10.55,10.55-10.55,1.6,0,3.12.32,4.48.96,3.6,1.68,6.15,5.35,6.15,9.59s-2.56,7.91-6.15,9.59c-1.36.64-2.88.96-4.48.96-5.83,0-10.55-4.72-10.55-10.55ZM410.29,103.48h110.34v33.97h-110.34v27.7c0,9.59,7.83,17.5,17.42,17.5h92.92v33.89h-92.92c-28.37,0-51.31-23.02-51.31-51.39v-61.67h33.89ZM43.23,137.41v69.02h-.08v9.03H9.35V76.8c0-28.37,22.94-51.47,51.31-51.47h88c-8.07,9.75-14.15,21.34-17.42,33.97H60.66c-9.67,0-17.42,7.91-17.42,17.5v26.64h88.01c3.28,12.63,9.35,24.22,17.42,33.97H43.23ZM520.61,11.1c-11.03,0-20.62,5.67-26.21,14.23h-117.97v33.97h117.97c5.51,8.63,15.19,14.31,26.21,14.31,17.26,0,31.33-13.99,31.33-31.25s-14.07-31.25-31.33-31.25ZM520.61,52.9c-5.83,0-10.55-4.72-10.55-10.55s4.72-10.55,10.55-10.55,10.55,4.72,10.55,10.55-4.72,10.55-10.55,10.55Z"/>
      <g class="cls-8">
        <g class="cls-11">
          <ellipse class="cls-2" cx="229.07" cy="38.06" rx="305.34" ry="120.01" transform="translate(-2.79 25.32) rotate(-6.29)"/>
        </g>
      </g>
    </g>
    <g>
      <g>
        <path class="cls-2" d="M27.57,248.81v5.38h-11.46v6.12h8.85v5.14h-8.85v11.3h-6.76v-27.94h18.22Z"/>
        <path class="cls-2" d="M51.1,250.21c2.15,1.23,3.84,2.92,5.08,5.1,1.24,2.18,1.86,4.63,1.86,7.37s-.62,5.2-1.88,7.39c-1.25,2.18-2.95,3.89-5.1,5.12-2.15,1.23-4.53,1.84-7.13,1.84s-4.99-.61-7.14-1.84c-2.15-1.23-3.85-2.93-5.1-5.12-1.25-2.18-1.88-4.64-1.88-7.39s.62-5.2,1.88-7.37c1.25-2.18,2.95-3.87,5.1-5.1,2.15-1.23,4.53-1.84,7.14-1.84s5.02.61,7.17,1.84ZM38.65,256.81c-1.3,1.44-1.96,3.4-1.96,5.87s.65,4.4,1.96,5.85c1.3,1.45,3.06,2.18,5.28,2.18s3.94-.73,5.25-2.18c1.32-1.45,1.98-3.4,1.98-5.85s-.65-4.4-1.96-5.85c-1.3-1.45-3.06-2.18-5.27-2.18s-3.97.72-5.28,2.15Z"/>
        <path class="cls-2" d="M75.78,276.75l-6.05-10.56h-1.54v10.56h-6.76v-27.94h11.54c2.21,0,4.08.38,5.61,1.15,1.53.76,2.68,1.81,3.44,3.14.77,1.34,1.15,2.85,1.15,4.57,0,2.03-.56,3.76-1.68,5.18-1.12,1.42-2.75,2.4-4.88,2.92l6.64,10.99h-7.47ZM68.19,261.57h4.19c1.34,0,2.33-.3,2.97-.89.63-.6.95-1.47.95-2.63,0-1.1-.32-1.97-.97-2.6-.65-.64-1.63-.95-2.95-.95h-4.19v7.07Z"/>
        <path class="cls-2" d="M112.64,272.95c-.75,1.24-1.86,2.23-3.32,2.96-1.46.74-3.23,1.11-5.32,1.11-3.14,0-5.72-.76-7.75-2.29-2.03-1.53-3.14-3.66-3.32-6.41h7.2c.1,1.05.48,1.89,1.12,2.49.65.61,1.47.9,2.47.9.87,0,1.55-.24,2.06-.71.5-.47.75-1.11.75-1.9,0-.71-.23-1.3-.69-1.78-.46-.47-1.03-.86-1.72-1.16-.69-.31-1.63-.67-2.85-1.08-1.76-.61-3.21-1.19-4.33-1.76-1.12-.57-2.08-1.41-2.88-2.53-.81-1.12-1.21-2.58-1.21-4.37,0-1.66.42-3.1,1.27-4.31.84-1.21,2.01-2.14,3.5-2.78,1.49-.64,3.19-.97,5.12-.97,3.11,0,5.58.74,7.41,2.22,1.83,1.48,2.86,3.51,3.1,6.08h-7.31c-.13-.92-.47-1.65-1.01-2.19-.54-.53-1.27-.81-2.19-.81-.79,0-1.43.21-1.92.64-.49.42-.73,1.04-.73,1.85,0,.66.22,1.22.65,1.68.43.46.98.83,1.64,1.12s1.61.66,2.85,1.11c1.79.61,3.25,1.2,4.39,1.8,1.14.59,2.11,1.45,2.93,2.59.81,1.13,1.22,2.61,1.22,4.42,0,1.48-.37,2.84-1.12,4.07Z"/>
        <path class="cls-2" d="M137.58,250.21c2.15,1.23,3.84,2.92,5.08,5.1,1.24,2.18,1.86,4.63,1.86,7.37s-.62,5.2-1.88,7.39c-1.25,2.18-2.95,3.89-5.1,5.12-2.15,1.23-4.53,1.84-7.13,1.84s-4.99-.61-7.14-1.84c-2.15-1.23-3.85-2.93-5.1-5.12-1.25-2.18-1.88-4.64-1.88-7.39s.62-5.2,1.88-7.37c1.25-2.18,2.95-3.87,5.1-5.1,2.15-1.23,4.53-1.84,7.14-1.84s5.02.61,7.17,1.84ZM125.13,256.81c-1.3,1.44-1.96,3.4-1.96,5.87s.65,4.4,1.96,5.85c1.3,1.45,3.06,2.18,5.28,2.18s3.94-.73,5.25-2.18c1.32-1.45,1.98-3.4,1.98-5.85s-.65-4.4-1.96-5.85c-1.3-1.45-3.06-2.18-5.27-2.18s-3.97.72-5.28,2.15Z"/>
        <path class="cls-2" d="M166.13,248.81v5.38h-11.46v6.12h8.85v5.14h-8.85v11.3h-6.76v-27.94h18.22Z"/>
        <path class="cls-2" d="M189.29,248.81v5.38h-7.59v22.56h-6.79v-22.56h-7.51v-5.38h21.89Z"/>
        <path class="cls-2" d="M229.72,248.81l-6.68,27.94h-8.38l-4.47-18.7-4.5,18.7h-8.38l-6.68-27.94h7.35l3.6,20.23,4.9-20.23h7.39l4.9,20.23,3.63-20.23h7.31Z"/>
        <path class="cls-2" d="M250.19,271.65h-10.47l-1.74,5.1h-7.12l10.24-27.74h7.79l10.23,27.74h-7.19l-1.74-5.1ZM248.45,266.52l-3.48-10.28-3.52,10.28h6.99Z"/>
        <path class="cls-2" d="M275.68,276.75l-6.05-10.56h-1.54v10.56h-6.76v-27.94h11.54c2.21,0,4.08.38,5.61,1.15,1.53.76,2.68,1.81,3.44,3.14.77,1.34,1.15,2.85,1.15,4.57,0,2.03-.56,3.76-1.68,5.18-1.12,1.42-2.75,2.4-4.88,2.92l6.64,10.99h-7.47ZM268.09,261.57h4.19c1.34,0,2.33-.3,2.97-.89.63-.6.95-1.47.95-2.63,0-1.1-.32-1.97-.97-2.6-.65-.64-1.63-.95-2.95-.95h-4.19v7.07Z"/>
        <path class="cls-2" d="M292.84,254.19v5.85h9.45v5.1h-9.45v6.2h10.63v5.42h-17.39v-27.94h17.39v5.38h-10.63Z"/>
        <path class="cls-2" d="M321.17,254.19v5.85h9.45v5.1h-9.45v6.2h10.63v5.42h-17.39v-27.94h17.39v5.38h-10.63Z"/>
        <path class="cls-2" d="M360.06,276.75h-6.76l-11.31-17.15v17.15h-6.76v-27.94h6.76l11.31,17.31v-17.31h6.76v27.94Z"/>
        <path class="cls-2" d="M386.07,251.1c2.26,1.71,3.67,4.03,4.23,6.96h-7.15c-.48-1-1.2-1.79-2.17-2.39-.98-.59-2.15-.89-3.52-.89-2.13,0-3.85.72-5.14,2.15-1.29,1.44-1.94,3.38-1.94,5.83,0,2.66.68,4.7,2.04,6.12,1.36,1.42,3.29,2.14,5.79,2.14,1.61,0,3.02-.44,4.23-1.33,1.21-.88,2.07-2.14,2.57-3.77h-8.54v-4.86h14.19v6.67c-.53,1.63-1.37,3.15-2.53,4.55-1.16,1.39-2.64,2.53-4.45,3.4-1.8.87-3.87,1.3-6.19,1.3-2.82,0-5.28-.6-7.39-1.8-2.11-1.19-3.74-2.88-4.88-5.04-1.15-2.16-1.72-4.62-1.72-7.39s.57-5.23,1.72-7.4c1.14-2.15,2.77-3.84,4.86-5.04,2.09-1.19,4.54-1.79,7.33-1.79,3.51,0,6.39.86,8.66,2.56Z"/>
        <path class="cls-2" d="M400.81,248.81v27.94h-6.76v-27.94h6.76Z"/>
        <path class="cls-2" d="M429.9,276.75h-6.76l-11.31-17.15v17.15h-6.76v-27.94h6.76l11.31,17.31v-17.31h6.76v27.94Z"/>
        <path class="cls-2" d="M440.92,254.19v5.85h9.45v5.1h-9.45v6.2h10.63v5.42h-17.39v-27.94h17.39v5.38h-10.63Z"/>
        <path class="cls-2" d="M461.75,254.19v5.85h9.45v5.1h-9.45v6.2h10.63v5.42h-17.39v-27.94h17.39v5.38h-10.63Z"/>
        <path class="cls-2" d="M490.17,276.75l-6.05-10.56h-1.54v10.56h-6.76v-27.94h11.54c2.21,0,4.08.38,5.61,1.15,1.53.76,2.68,1.81,3.44,3.14.77,1.34,1.15,2.85,1.15,4.57,0,2.03-.56,3.76-1.68,5.18-1.12,1.42-2.75,2.4-4.88,2.92l6.64,10.99h-7.47ZM482.58,261.57h4.19c1.34,0,2.33-.3,2.97-.89.63-.6.95-1.47.95-2.63,0-1.1-.32-1.97-.97-2.6-.65-.64-1.63-.95-2.95-.95h-4.19v7.07Z"/>
        <path class="cls-2" d="M519.51,272.95c-.75,1.24-1.86,2.23-3.32,2.96-1.46.74-3.23,1.11-5.32,1.11-3.14,0-5.72-.76-7.75-2.29-2.03-1.53-3.14-3.66-3.32-6.41h7.2c.1,1.05.48,1.89,1.12,2.49.65.61,1.47.9,2.47.9.87,0,1.55-.24,2.06-.71.5-.47.75-1.11.75-1.9,0-.71-.23-1.3-.69-1.78-.46-.47-1.03-.86-1.72-1.16-.69-.31-1.63-.67-2.85-1.08-1.76-.61-3.21-1.19-4.33-1.76-1.12-.57-2.08-1.41-2.88-2.53-.81-1.12-1.21-2.58-1.21-4.37,0-1.66.42-3.1,1.27-4.31.84-1.21,2.01-2.14,3.5-2.78,1.49-.64,3.19-.97,5.12-.97,3.11,0,5.58.74,7.41,2.22,1.83,1.48,2.86,3.51,3.1,6.08h-7.31c-.13-.92-.47-1.65-1.01-2.19-.54-.53-1.27-.81-2.19-.81-.79,0-1.43.21-1.92.64-.49.42-.73,1.04-.73,1.85,0,.66.22,1.22.65,1.68.43.46.98.83,1.64,1.12s1.61.66,2.85,1.11c1.79.61,3.25,1.2,4.39,1.8,1.14.59,2.11,1.45,2.93,2.59.81,1.13,1.22,2.61,1.22,4.42,0,1.48-.37,2.84-1.12,4.07Z"/>
      </g>
      <g>
        <path class="cls-1" d="M27.57,248.81v5.38h-11.46v6.12h8.85v5.14h-8.85v11.3h-6.76v-27.94h18.22ZM51.1,250.21c2.15,1.23,3.84,2.92,5.08,5.1,1.24,2.18,1.86,4.63,1.86,7.37s-.62,5.2-1.88,7.39c-1.25,2.18-2.95,3.89-5.1,5.12-2.15,1.23-4.53,1.84-7.13,1.84s-4.99-.61-7.14-1.84c-2.15-1.23-3.85-2.93-5.1-5.12-1.25-2.18-1.88-4.64-1.88-7.39s.62-5.2,1.88-7.37c1.25-2.18,2.95-3.87,5.1-5.1,2.15-1.23,4.53-1.84,7.14-1.84s5.02.61,7.17,1.84ZM38.65,256.81c-1.3,1.44-1.96,3.4-1.96,5.87s.65,4.4,1.96,5.85c1.3,1.45,3.06,2.18,5.28,2.18s3.94-.73,5.25-2.18c1.32-1.45,1.98-3.4,1.98-5.85s-.65-4.4-1.96-5.85c-1.3-1.45-3.06-2.18-5.27-2.18s-3.97.72-5.28,2.15ZM75.78,276.75l-6.05-10.56h-1.54v10.56h-6.76v-27.94h11.54c2.21,0,4.08.38,5.61,1.15,1.53.76,2.68,1.81,3.44,3.14.77,1.34,1.15,2.85,1.15,4.57,0,2.03-.56,3.76-1.68,5.18-1.12,1.42-2.75,2.4-4.88,2.92l6.64,10.99h-7.47ZM68.19,261.57h4.19c1.34,0,2.33-.3,2.97-.89.63-.6.95-1.47.95-2.63,0-1.1-.32-1.97-.97-2.6-.65-.64-1.63-.95-2.95-.95h-4.19v7.07ZM112.64,272.95c-.75,1.24-1.86,2.23-3.32,2.96-1.46.74-3.23,1.11-5.32,1.11-3.14,0-5.72-.76-7.75-2.29-2.03-1.53-3.14-3.66-3.32-6.41h7.2c.1,1.05.48,1.89,1.12,2.49.65.61,1.47.9,2.47.9.87,0,1.55-.24,2.06-.71.5-.47.75-1.11.75-1.9,0-.71-.23-1.3-.69-1.78-.46-.47-1.03-.86-1.72-1.16-.69-.31-1.63-.67-2.85-1.08-1.76-.61-3.21-1.19-4.33-1.76-1.12-.57-2.08-1.41-2.88-2.53-.81-1.12-1.21-2.58-1.21-4.37,0-1.66.42-3.1,1.27-4.31.84-1.21,2.01-2.14,3.5-2.78,1.49-.64,3.19-.97,5.12-.97,3.11,0,5.58.74,7.41,2.22,1.83,1.48,2.86,3.51,3.1,6.08h-7.31c-.13-.92-.47-1.65-1.01-2.19-.54-.53-1.27-.81-2.19-.81-.79,0-1.43.21-1.92.64-.49.42-.73,1.04-.73,1.85,0,.66.22,1.22.65,1.68.43.46.98.83,1.64,1.12s1.61.66,2.85,1.11c1.79.61,3.25,1.2,4.39,1.8,1.14.59,2.11,1.45,2.93,2.59.81,1.13,1.22,2.61,1.22,4.42,0,1.48-.37,2.84-1.12,4.07ZM137.58,250.21c2.15,1.23,3.84,2.92,5.08,5.1,1.24,2.18,1.86,4.63,1.86,7.37s-.62,5.2-1.88,7.39c-1.25,2.18-2.95,3.89-5.1,5.12-2.15,1.23-4.53,1.84-7.13,1.84s-4.99-.61-7.14-1.84c-2.15-1.23-3.85-2.93-5.1-5.12-1.25-2.18-1.88-4.64-1.88-7.39s.62-5.2,1.88-7.37c1.25-2.18,2.95-3.87,5.1-5.1,2.15-1.23,4.53-1.84,7.14-1.84s5.02.61,7.17,1.84ZM125.13,256.81c-1.3,1.44-1.96,3.4-1.96,5.87s.65,4.4,1.96,5.85c1.3,1.45,3.06,2.18,5.28,2.18s3.94-.73,5.25-2.18c1.32-1.45,1.98-3.4,1.98-5.85s-.65-4.4-1.96-5.85c-1.3-1.45-3.06-2.18-5.27-2.18s-3.97.72-5.28,2.15ZM166.13,248.81v5.38h-11.46v6.12h8.85v5.14h-8.85v11.3h-6.76v-27.94h18.22ZM189.29,248.81v5.38h-7.59v22.56h-6.79v-22.56h-7.51v-5.38h21.89ZM229.72,248.81l-6.68,27.94h-8.38l-4.47-18.7-4.5,18.7h-8.38l-6.68-27.94h7.35l3.6,20.23,4.9-20.23h7.39l4.9,20.23,3.63-20.23h7.31ZM250.19,271.65h-10.47l-1.74,5.1h-7.12l10.24-27.74h7.79l10.23,27.74h-7.19l-1.74-5.1ZM248.45,266.52l-3.48-10.28-3.52,10.28h6.99ZM275.68,276.75l-6.05-10.56h-1.54v10.56h-6.76v-27.94h11.54c2.21,0,4.08.38,5.61,1.15,1.53.76,2.68,1.81,3.44,3.14.77,1.34,1.15,2.85,1.15,4.57,0,2.03-.56,3.76-1.68,5.18-1.12,1.42-2.75,2.4-4.88,2.92l6.64,10.99h-7.47ZM268.09,261.57h4.19c1.34,0,2.33-.3,2.97-.89.63-.6.95-1.47.95-2.63,0-1.1-.32-1.97-.97-2.6-.65-.64-1.63-.95-2.95-.95h-4.19v7.07ZM292.84,254.19v5.85h9.45v5.1h-9.45v6.2h10.63v5.42h-17.39v-27.94h17.39v5.38h-10.63ZM321.17,254.19v5.85h9.45v5.1h-9.45v6.2h10.63v5.42h-17.39v-27.94h17.39v5.38h-10.63ZM360.06,276.75h-6.76l-11.31-17.15v17.15h-6.76v-27.94h6.76l11.31,17.31v-17.31h6.76v27.94ZM386.07,251.1c2.26,1.71,3.67,4.03,4.23,6.96h-7.15c-.48-1-1.2-1.79-2.17-2.39-.98-.59-2.15-.89-3.52-.89-2.13,0-3.85.72-5.14,2.15-1.29,1.44-1.94,3.38-1.94,5.83,0,2.66.68,4.7,2.04,6.12,1.36,1.42,3.29,2.14,5.79,2.14,1.61,0,3.02-.44,4.23-1.33,1.21-.88,2.07-2.14,2.57-3.77h-8.54v-4.86h14.19v6.67c-.53,1.63-1.37,3.15-2.53,4.55-1.16,1.39-2.64,2.53-4.45,3.4-1.8.87-3.87,1.3-6.19,1.3-2.82,0-5.28-.6-7.39-1.8-2.11-1.19-3.74-2.88-4.88-5.04-1.15-2.16-1.72-4.62-1.72-7.39s.57-5.23,1.72-7.4c1.14-2.15,2.77-3.84,4.86-5.04,2.09-1.19,4.54-1.79,7.33-1.79,3.51,0,6.39.86,8.66,2.56ZM400.81,248.81v27.94h-6.76v-27.94h6.76ZM429.9,276.75h-6.76l-11.31-17.15v17.15h-6.76v-27.94h6.76l11.31,17.31v-17.31h6.76v27.94ZM440.92,254.19v5.85h9.45v5.1h-9.45v6.2h10.63v5.42h-17.39v-27.94h17.39v5.38h-10.63ZM461.75,254.19v5.85h9.45v5.1h-9.45v6.2h10.63v5.42h-17.39v-27.94h17.39v5.38h-10.63ZM490.17,276.75l-6.05-10.56h-1.54v10.56h-6.76v-27.94h11.54c2.21,0,4.08.38,5.61,1.15,1.53.76,2.68,1.81,3.44,3.14.77,1.34,1.15,2.85,1.15,4.57,0,2.03-.56,3.76-1.68,5.18-1.12,1.42-2.75,2.4-4.88,2.92l6.64,10.99h-7.47ZM482.58,261.57h4.19c1.34,0,2.33-.3,2.97-.89.63-.6.95-1.47.95-2.63,0-1.1-.32-1.97-.97-2.6-.65-.64-1.63-.95-2.95-.95h-4.19v7.07ZM519.51,272.95c-.75,1.24-1.86,2.23-3.32,2.96-1.46.74-3.23,1.11-5.32,1.11-3.14,0-5.72-.76-7.75-2.29-2.03-1.53-3.14-3.66-3.32-6.41h7.2c.1,1.05.48,1.89,1.12,2.49.65.61,1.47.9,2.47.9.87,0,1.55-.24,2.06-.71.5-.47.75-1.11.75-1.9,0-.71-.23-1.3-.69-1.78-.46-.47-1.03-.86-1.72-1.16-.69-.31-1.63-.67-2.85-1.08-1.76-.61-3.21-1.19-4.33-1.76-1.12-.57-2.08-1.41-2.88-2.53-.81-1.12-1.21-2.58-1.21-4.37,0-1.66.42-3.1,1.27-4.31.84-1.21,2.01-2.14,3.5-2.78,1.49-.64,3.19-.97,5.12-.97,3.11,0,5.58.74,7.41,2.22,1.83,1.48,2.86,3.51,3.1,6.08h-7.31c-.13-.92-.47-1.65-1.01-2.19-.54-.53-1.27-.81-2.19-.81-.79,0-1.43.21-1.92.64-.49.42-.73,1.04-.73,1.85,0,.66.22,1.22.65,1.68.43.46.98.83,1.64,1.12s1.61.66,2.85,1.11c1.79.61,3.25,1.2,4.39,1.8,1.14.59,2.11,1.45,2.93,2.59.81,1.13,1.22,2.61,1.22,4.42,0,1.48-.37,2.84-1.12,4.07Z"/>
        <g class="cls-5">
          <g class="cls-3">
            <rect class="cls-2" x="9.35" y="246.42" width="511.29" height="20.1"/>
          </g>
        </g>
      </g>
    </g>
  </g>
</svg>