<?xml version="1.0" encoding="UTF-8"?>
<svg id="Layer_1" data-name="Layer 1" xmlns="http://www.w3.org/2000/svg" viewBox="0 0 3683 3107.14">
  <defs>
    <style>
      .cls-1 {
        fill: #fff;
        fill-rule: evenodd;
        stroke-width: 0px;
      }
    </style>
  </defs>
  <path class="cls-1" d="M1637.23,80.87v1515.47c-89.77-29.67-170.15-79.98-235.49-145.32-35.1-35.1-65.85-74.53-91.41-117.43h-.17c0-18.23-14.77-33-33-33s-33,14.77-33,33h-.17l.18.33c.12,11.65,6.26,21.85,15.47,27.63,28.21,47.66,62.28,91.45,101.2,130.38,76.04,76.04,170.63,133.51,276.4,165.07h0s.02,0,.02,0c18.94,5.65,38.23,10.48,57.84,14.42V80.61c2.55-4.68,4-10.05,4-15.76,0-18.23-14.77-33-33-33s-33,14.77-33,33c0,5.81,1.51,11.27,4.14,16.01h0ZM2131.62,1890.19c1.87,0,3.71.16,5.49.46,128.01-46.23,242.8-120.11,337.13-214.44,94.33-94.33,168.21-209.12,214.44-337.14-.3-1.79-.46-3.62-.46-5.49,0-18.23,14.77-33,33-33s33,14.77,33,33c0,9.72-4.2,18.46-10.89,24.5-49.13,136.34-127.75,258.6-228.19,359.04-100.44,100.44-222.7,179.06-359.04,228.19-6.04,6.68-14.78,10.89-24.49,10.89-18.23,0-33-14.77-33-33s14.77-33,33-33h0ZM2159.59,1593.12c47.66-28.21,91.45-62.27,130.38-101.2,38.92-38.92,72.99-82.72,101.2-130.38,9.21-5.78,15.36-15.99,15.47-27.63l.18-.33h-.17c0-18.23-14.77-33-33-33s-33,14.77-33,33h-.17c-25.56,42.9-56.31,82.33-91.41,117.43-35.1,35.1-74.53,65.86-117.43,91.41v.17c-18.23,0-33,14.77-33,33s14.77,33,33,33v.17l.33-.17c11.65-.11,21.85-6.26,27.64-15.47h0ZM929.56,1300.58c18.23,0,33,14.77,33,33,0,1.87-.16,3.71-.46,5.49,46.23,128.01,120.11,242.8,214.44,337.13,166.05,166.05,395.45,268.76,648.85,268.76,44.24,0,87.74-3.14,130.3-9.2V79.74c-2.23-4.45-3.5-9.47-3.5-14.79,0-18.23,14.77-33,33-33s33,14.77,33,33c0,6.17-1.7,11.95-4.64,16.89v1902.85c-60.89,11.9-123.79,18.15-188.17,18.15-269.37,0-513.23-109.19-689.76-285.71-100.44-100.44-179.06-222.7-228.19-359.04-6.69-6.04-10.89-14.78-10.89-24.5,0-18.23,14.77-33,33-33h0ZM2131.62,98.54c9.72,0,18.45,4.2,24.49,10.88,136.34,49.12,258.6,127.74,359.04,228.19,176.52,176.52,285.71,420.39,285.71,689.76,0,64.37-6.24,127.28-18.15,188.17h-694.23c-4.72,2.6-10.13,4.08-15.89,4.08-18.23,0-33-14.77-33-33s14.77-33,33-33c5.76,0,11.18,1.48,15.89,4.07h321.83s59.15-.01,59.15-.01h0s264.34.01,264.34.01c6.06-42.57,9.19-86.07,9.19-130.32,0-253.39-102.71-482.8-268.76-648.85-94.34-94.33-209.12-168.2-337.14-214.43-1.79.3-3.62.46-5.49.46-18.23,0-33-14.77-33-33s14.77-33,33-33h0ZM2131.95,446.13l-.33-.17v.17c-18.23,0-33,14.77-33,33s14.77,33,33,33v.17c42.9,25.55,82.33,56.31,117.43,91.41,65.34,65.34,115.66,145.72,145.32,235.49h-305.89c-4.72-2.6-10.13-4.07-15.89-4.07-18.23,0-33,14.77-33,33s14.77,33,33,33c5.76,0,11.18-1.48,15.89-4.07h321.83s59.15.01,59.15.01c-3.94-19.61-8.77-38.9-14.42-57.83v-.03h0c-31.56-105.77-89.04-200.36-165.07-276.4-38.92-38.92-82.71-72.98-130.38-101.2-5.78-9.21-15.99-15.36-27.64-15.47h0ZM863.33,835.12c5.76,0,11.18,1.48,15.89,4.07h683.09c4.72-2.6,10.13-4.07,15.89-4.07,18.23,0,33,14.77,33,33s-14.77,33-33,33c-5.76,0-11.18-1.48-15.89-4.07h-321.83s-59.15.01-59.15.01h0s-264.34-.01-264.34-.01h0s-37.79.01-37.79.01c-4.71,2.59-10.12,4.06-15.88,4.06-18.23,0-33-14.77-33-33s14.77-33,33-33h0ZM863.33,1153.6c5.76,0,11.17,1.47,15.88,4.06h37.79s264.34.01,264.34.01h0s59.15-.01,59.15-.01h0s321.83.01,321.83.01c4.72-2.6,10.13-4.07,15.89-4.07,18.23,0,33,14.77,33,33s-14.77,33-33,33c-5.76,0-11.18-1.48-15.89-4.08h-683.09c-4.72,2.6-10.13,4.08-15.89,4.08-18.23,0-33-14.77-33-33s14.77-33,33-33h0ZM962.11,715.64c.3,1.79.46,3.62.46,5.49,0,18.23-14.77,33-33,33s-33-14.77-33-33c0-9.72,4.2-18.46,10.89-24.5,49.13-136.34,127.75-258.6,228.19-359.04,100.44-100.44,222.7-179.06,359.04-228.19,6.04-6.68,14.78-10.89,24.49-10.89,18.23,0,33,14.77,33,33s-14.77,33-33,33c-1.87,0-3.71-.16-5.49-.46-128.01,46.23-242.8,120.11-337.13,214.44-94.33,94.33-168.22,209.12-214.44,337.13h0ZM1310.16,721.14c0,18.23-14.77,33-33,33s-33-14.77-33-33h-.17l.18-.33c.12-11.64,6.26-21.84,15.46-27.63,28.21-47.67,62.28-91.46,101.21-130.38,38.93-38.93,82.72-72.99,130.38-101.21,5.78-9.2,15.98-15.35,27.63-15.47l.34-.18v.17c18.23,0,33,14.77,33,33s-14.77,33-33,33v.17c-42.9,25.56-82.33,56.31-117.43,91.41-35.1,35.1-65.86,74.53-91.41,117.43h-.17Z"/>
  <path class="cls-1" d="M335.85,2604.58v-336.28h-56.77v337c0,39.76-9.34,69.82-28.02,90.18-18.68,20.36-42.16,30.54-70.42,30.54-26.35,0-48.26-6.11-65.75-18.32-17.48-12.21-33.89-30.06-49.22-53.53l-40.96,35.21c15.81,25.87,36.17,47.18,61.08,63.95,24.91,16.77,56.29,25.15,94.13,25.15,22.52,0,43.35-3.59,62.51-10.78,19.16-7.19,35.57-18.08,49.34-32.69,13.77-14.61,24.55-32.81,32.33-54.61,7.78-21.79,11.74-47.06,11.74-75.81h0ZM825.9,2585.18c0-26.35-4.79-51.26-14.37-74.73-9.58-23.47-22.99-43.95-40.24-61.43-17.24-17.49-37.72-31.38-61.44-41.68-23.71-10.3-49.46-15.45-77.24-15.45s-54.25,5.15-77.96,15.45c-23.71,10.3-44.19,24.31-61.44,42.04-17.24,17.72-30.66,38.44-40.24,62.15-9.58,23.71-14.37,48.74-14.37,75.09s4.79,51.26,14.37,74.73c9.58,23.47,22.99,43.95,40.24,61.44,17.24,17.49,37.6,31.38,61.08,41.68,23.47,10.3,49.1,15.45,76.89,15.45s53.65-5.15,77.6-15.45c23.95-10.3,44.55-24.31,61.8-42.04,17.24-17.72,30.78-38.44,40.6-62.15,9.82-23.71,14.73-48.74,14.73-75.09h0ZM769.13,2586.26c0,20.12-3.35,38.8-10.06,56.29-6.71,17.37-16.05,32.58-28.02,45.51-11.98,12.93-26.35,22.99-43.11,30.42-16.77,7.43-35.21,11.14-55.33,11.14s-37.85-3.83-54.61-11.5c-16.77-7.66-31.26-17.84-43.47-30.78-12.22-12.93-21.8-28.26-28.74-45.87-6.95-17.73-10.42-36.53-10.42-56.65s3.35-38.8,10.06-56.29c6.7-17.36,15.93-32.69,27.66-45.87,11.74-13.17,25.99-23.35,42.75-30.78,16.76-7.43,35.21-11.14,55.33-11.14s37.84,3.83,54.61,11.5c16.77,7.66,31.38,17.96,43.83,31.14,12.45,13.17,22.16,28.5,29.1,46.23,6.94,17.72,10.42,36.53,10.42,56.65h0ZM986.14,2771.28v-524.54h-55.33v524.54h55.33ZM1175.12,2771.28v-524.54h-55.33v524.54h55.33ZM1438.11,2443.63c34.97,0,62.16,8.5,81.56,25.51,19.4,17.01,29.1,42.28,29.1,75.81v12.93c-16.76-4.79-34.01-8.62-51.74-11.5-17.72-2.87-38.56-4.31-62.51-4.31s-44.91,2.64-64.31,7.91c-19.4,5.27-36.17,12.93-50.3,22.99-14.13,10.06-25.03,22.63-32.69,37.72-7.66,15.09-11.5,32.45-11.5,52.1s3.95,36.65,11.86,51.02c7.9,14.37,18.44,26.47,31.62,36.28,13.17,9.82,28.02,17.13,44.55,21.92,16.53,4.79,33.41,7.19,50.66,7.19,33.05,0,60.48-6.47,82.27-19.4,21.8-12.93,39.16-27.79,52.1-44.55v56.05h53.17v-227.06c0-49.34-13.65-86.59-40.96-111.74-27.31-25.15-66.35-37.72-117.12-37.72-27.3,0-51.5,2.75-72.57,8.26-21.08,5.51-41.91,13.05-62.51,22.64l16.53,45.27c17.25-8.14,34.85-14.73,52.81-19.76,17.96-5.03,37.96-7.54,60-7.54h0ZM1440.62,2583.02c22.87,0,43.35,1.68,61.2,5.03,17.97,3.35,33.77,6.95,47.66,10.78v35.93c0,14.85-3.23,28.38-9.7,40.6-6.47,12.22-15.21,22.75-26.47,31.62-11.26,8.86-24.31,15.81-39.4,20.84-14.97,5.03-31.14,7.54-48.38,7.54-12.33,0-24.19-1.68-35.45-5.03-11.14-3.35-21.08-8.26-29.7-14.73-8.5-6.47-15.33-14.25-20.36-23.35-5.03-9.1-7.54-19.64-7.54-31.62,0-23.95,9.34-42.87,27.9-56.77,18.68-13.89,45.39-20.84,80.24-20.84h0ZM2308.27,2268.3h-363.59v502.98h367.18v-51.74h-310.42v-176.04h274.49v-51.74h-274.49v-171.74h306.82v-51.73h0ZM2472.1,2558.59c0-17.25,2.76-33.06,8.26-47.43,5.51-14.37,13.29-26.7,23.35-37.01,10.06-10.3,21.91-18.2,35.57-23.71,13.65-5.51,28.38-8.26,44.19-8.26,33.05,0,58.44,10.06,76.16,30.18,17.73,20.12,26.59,47.43,26.59,81.92v217h55.33v-230.66c0-22.03-3.23-42.15-9.7-60.36-6.47-18.2-15.81-33.89-28.02-47.06-12.22-13.17-27.06-23.35-44.55-30.54-17.49-7.18-37.48-10.78-60-10.78-32.1,0-58.2,7.06-78.32,21.2-20.12,14.13-36.4,31.26-48.86,51.38v-64.67h-55.33v371.49h55.33v-212.69h0ZM3212.93,2771.28v-524.54h-55.33v224.19c-7.18-10.54-15.45-20.6-24.79-30.18-9.34-9.58-19.76-17.96-31.26-25.15-11.5-7.18-24.43-12.93-38.8-17.24-14.37-4.31-30.18-6.47-47.42-6.47-22.51,0-44.31,4.43-65.39,13.29-21.08,8.86-40,21.56-56.76,38.08-16.77,16.53-30.18,36.77-40.24,60.72-10.06,23.95-15.09,51.26-15.09,81.92s5.03,57.96,15.09,81.91c10.06,23.95,23.47,44.19,40.24,60.72,16.76,16.53,35.69,29.1,56.76,37.72,21.08,8.62,42.87,12.93,65.39,12.93,17.25,0,32.93-2.16,47.06-6.47,14.13-4.31,26.95-10.3,38.44-17.96,11.5-7.66,21.92-16.53,31.26-26.59,9.34-10.06,17.85-20.6,25.51-31.62v74.73h55.33ZM3159.75,2585.18c0,21.43-3.71,41.08-11.14,59.04-7.42,17.84-17.48,32.93-30.18,45.39-12.69,12.34-27.06,22.04-43.11,28.86-16.05,6.95-32.69,10.42-49.94,10.42s-34.49-3.35-50.3-10.06c-15.81-6.59-29.7-16.29-41.67-28.86-11.98-12.69-21.44-27.78-28.38-45.39-6.94-17.72-10.42-37.48-10.42-59.4s3.48-42.52,10.42-60.36c6.95-17.96,16.29-32.93,28.02-45.15,11.74-12.1,25.51-21.44,41.32-27.78,15.81-6.47,32.81-9.7,51.01-9.7,17.25,0,33.89,3.47,49.94,10.42,16.05,6.83,30.42,16.53,43.11,28.86,12.7,12.45,22.76,27.42,30.18,45.03,7.43,17.72,11.14,37.25,11.14,58.68h0ZM3470.89,2443.63c34.97,0,62.16,8.5,81.56,25.51,19.4,17.01,29.1,42.28,29.1,75.81v12.93c-16.76-4.79-34.01-8.62-51.74-11.5-17.72-2.87-38.56-4.31-62.51-4.31s-44.91,2.64-64.31,7.91c-19.4,5.27-36.17,12.93-50.3,22.99-14.13,10.06-25.03,22.63-32.7,37.72-7.66,15.09-11.5,32.45-11.5,52.1s3.95,36.65,11.86,51.02c7.91,14.37,18.44,26.47,31.62,36.28,13.17,9.82,28.02,17.13,44.55,21.92,16.53,4.79,33.41,7.19,50.66,7.19,33.05,0,60.48-6.47,82.27-19.4,21.8-12.93,39.16-27.79,52.09-44.55v56.05h53.17v-227.06c0-49.34-13.65-86.59-40.96-111.74-27.31-25.15-66.35-37.72-117.12-37.72-27.3,0-51.5,2.75-72.57,8.26-21.08,5.51-41.92,13.05-62.51,22.64l16.53,45.27c17.24-8.14,34.85-14.73,52.81-19.76,17.96-5.03,37.96-7.54,60-7.54h0ZM3473.4,2583.02c22.87,0,43.35,1.68,61.2,5.03,17.96,3.35,33.77,6.95,47.66,10.78v35.93c0,14.85-3.23,28.38-9.7,40.6-6.47,12.22-15.21,22.75-26.47,31.62-11.26,8.86-24.31,15.81-39.4,20.84-14.97,5.03-31.14,7.54-48.38,7.54-12.33,0-24.19-1.68-35.45-5.03-11.14-3.35-21.08-8.26-29.7-14.73-8.5-6.47-15.33-14.25-20.36-23.35-5.03-9.1-7.54-19.64-7.54-31.62,0-23.95,9.34-42.87,27.9-56.77,18.68-13.89,45.39-20.84,80.24-20.84Z"/>
  <path class="cls-1" d="M985.41,2960.06h35.04v-17.99h-89.64v17.99h35.03v92.48h19.57v-92.48h0ZM1194.51,2942.07h-81.75v110.47h82.54v-17.52h-63.28v-29.51h55.39v-17.52h-55.39v-28.41h62.49v-17.52h0ZM1386.41,3034.86l-12.47-12.62c-4.73,4.42-9.52,7.92-14.36,10.49-4.84,2.58-10.63,3.87-17.36,3.87-5.26,0-10.13-1.03-14.6-3.08-4.47-2.05-8.34-4.87-11.6-8.44-3.26-3.58-5.79-7.76-7.58-12.55-1.79-4.79-2.68-9.92-2.68-15.39s.89-10.57,2.68-15.31c1.79-4.73,4.31-8.86,7.58-12.39,3.26-3.52,7.13-6.31,11.6-8.36,4.47-2.05,9.34-3.08,14.6-3.08,6.31,0,11.94,1.26,16.89,3.79,4.95,2.52,9.63,5.84,14.04,9.94l12.47-14.36c-2.63-2.53-5.42-4.84-8.36-6.95-2.95-2.1-6.15-3.92-9.63-5.44-3.47-1.52-7.28-2.71-11.44-3.55-4.16-.84-8.76-1.26-13.81-1.26-8.42,0-16.1,1.5-23.04,4.5-6.94,3-12.94,7.1-17.99,12.31-5.05,5.21-8.97,11.28-11.76,18.23-2.79,6.94-4.18,14.36-4.18,22.25s1.42,15.47,4.26,22.41c2.84,6.94,6.76,12.97,11.76,18.07,5,5.1,10.92,9.13,17.75,12.07,6.84,2.95,14.31,4.42,22.41,4.42,5.16,0,9.86-.45,14.12-1.34,4.26-.89,8.18-2.21,11.76-3.94,3.58-1.74,6.92-3.79,10.02-6.16,3.1-2.37,6.07-5.08,8.92-8.13h0ZM1550.86,3005.98v46.56h19.25v-110.47h-19.25v45.92h-53.03v-45.92h-19.25v110.47h19.25v-46.56h53.03ZM1747.34,3018.45l-59.05-76.38h-17.96v110.47h19.25v-78.59l60.78,78.59h16.23v-110.47h-19.25v76.38h0ZM1977.43,2997.15c0-7.78-1.42-15.15-4.26-22.09-2.84-6.94-6.79-12.99-11.84-18.15-5.05-5.16-11.1-9.23-18.15-12.23-7.05-3-14.84-4.5-23.36-4.5s-16.31,1.53-23.36,4.58c-7.05,3.05-13.15,7.18-18.3,12.39-5.16,5.21-9.15,11.28-11.99,18.23-2.84,6.94-4.26,14.31-4.26,22.09s1.42,15.15,4.26,22.09c2.84,6.94,6.79,12.99,11.84,18.15,5.05,5.16,11.1,9.23,18.15,12.23,7.05,3,14.84,4.5,23.36,4.5s16.31-1.52,23.36-4.58c7.05-3.05,13.15-7.18,18.31-12.39s9.15-11.28,11.99-18.23c2.84-6.94,4.26-14.31,4.26-22.09h0ZM1957.07,2997.46c0,5.37-.92,10.44-2.76,15.23-1.84,4.79-4.39,8.94-7.65,12.47-3.26,3.52-7.18,6.31-11.76,8.37-4.58,2.05-9.6,3.08-15.07,3.08s-10.52-1.05-15.15-3.16c-4.63-2.1-8.6-4.94-11.91-8.52-3.31-3.58-5.89-7.76-7.73-12.55-1.84-4.79-2.76-9.86-2.76-15.23s.92-10.44,2.76-15.23c1.84-4.79,4.39-8.94,7.65-12.47,3.26-3.52,7.18-6.31,11.76-8.36,4.58-2.05,9.6-3.08,15.07-3.08s10.52,1.05,15.15,3.16c4.63,2.1,8.6,4.94,11.91,8.52,3.31,3.58,5.89,7.76,7.73,12.55,1.84,4.79,2.76,9.86,2.76,15.23h0ZM2072.75,3052.54h77.33v-17.52h-58.08v-92.95h-19.25v110.47h0ZM2346.56,2997.15c0-7.78-1.42-15.15-4.26-22.09-2.84-6.94-6.79-12.99-11.84-18.15-5.05-5.16-11.1-9.23-18.15-12.23-7.05-3-14.83-4.5-23.36-4.5s-16.31,1.53-23.36,4.58c-7.05,3.05-13.15,7.18-18.31,12.39-5.16,5.21-9.15,11.28-11.99,18.23-2.84,6.94-4.26,14.31-4.26,22.09s1.42,15.15,4.26,22.09c2.84,6.94,6.79,12.99,11.84,18.15,5.05,5.16,11.1,9.23,18.15,12.23,7.05,3,14.83,4.5,23.36,4.5s16.31-1.52,23.36-4.58c7.05-3.05,13.15-7.18,18.3-12.39,5.16-5.21,9.15-11.28,11.99-18.23,2.84-6.94,4.26-14.31,4.26-22.09h0ZM2326.2,2997.46c0,5.37-.92,10.44-2.76,15.23-1.84,4.79-4.39,8.94-7.65,12.47-3.26,3.52-7.18,6.31-11.76,8.37-4.58,2.05-9.6,3.08-15.07,3.08s-10.52-1.05-15.15-3.16c-4.63-2.1-8.6-4.94-11.91-8.52-3.31-3.58-5.89-7.76-7.73-12.55-1.84-4.79-2.76-9.86-2.76-15.23s.92-10.44,2.76-15.23c1.84-4.79,4.39-8.94,7.65-12.47,3.26-3.52,7.18-6.31,11.76-8.36,4.58-2.05,9.6-3.08,15.07-3.08s10.52,1.05,15.15,3.16c4.63,2.1,8.6,4.94,11.91,8.52,3.31,3.58,5.89,7.76,7.73,12.55,1.84,4.79,2.76,9.86,2.76,15.23h0ZM2540.35,3037.23v-46.4h-47.03v16.89h28.25v20.78c-3.37,2.55-7.34,4.58-11.92,6.13-4.58,1.53-9.5,2.29-14.76,2.29-5.68,0-10.81-1-15.39-3-4.58-2-8.52-4.79-11.84-8.31-3.31-3.52-5.87-7.71-7.65-12.57-1.79-4.84-2.68-10.13-2.68-15.81,0-5.36.92-10.44,2.76-15.18,1.84-4.76,4.37-8.92,7.57-12.49,3.21-3.58,7-6.42,11.36-8.47,4.37-2.05,9.07-3.08,14.12-3.08,3.47,0,6.65.29,9.55.87,2.89.58,5.55,1.37,7.97,2.37,2.42,1,4.74,2.24,6.94,3.71,2.21,1.47,4.37,3.1,6.47,4.89l12.31-14.68c-2.84-2.42-5.76-4.55-8.76-6.39-3-1.84-6.18-3.39-9.55-4.65-3.37-1.26-7.02-2.24-10.97-2.92-3.95-.68-8.34-1.02-13.18-1.02-8.31,0-15.97,1.53-22.96,4.58-7,3.05-13.02,7.18-18.07,12.39-5.05,5.21-8.97,11.28-11.76,18.23-2.79,6.94-4.18,14.31-4.18,22.09s1.37,15.62,4.1,22.57c2.73,6.94,6.6,12.97,11.6,18.07,5,5.1,11.02,9.1,18.07,11.99,7.05,2.89,14.89,4.34,23.51,4.34,4.84,0,9.47-.45,13.89-1.34,4.42-.89,8.55-2.13,12.39-3.71,3.84-1.58,7.42-3.42,10.73-5.53,3.31-2.1,6.34-4.31,9.07-6.63h0ZM2684.75,3008.51l43.87-66.44h-22.25l-31.25,48.92-30.93-48.92h-22.88l43.87,66.91v43.56h19.57v-44.03Z"/>
</svg>