<?xml version="1.0" encoding="UTF-8"?>
<svg id="Layer_1" data-name="Layer 1" xmlns="http://www.w3.org/2000/svg" viewBox="0 0 1143.39 1124.61">
  <defs>
    <style>
      .cls-1 {
        fill: none;
      }

      .cls-1, .cls-2, .cls-3 {
        stroke-width: 0px;
      }

      .cls-2 {
        fill: #fff;
      }

      .cls-3 {
        fill: #47c8f5;
      }
    </style>
  </defs>
  <rect class="cls-1" x="-425.35" y="-437.09" width="2000" height="2000"/>
  <g>
    <g>
      <path class="cls-2" d="M866.53,462.21c0,76.03,112.37,81.4,119.35,5.69,1.17-12.74,1.77-25.64,1.77-38.68,0-230.03-186.48-416.51-416.51-416.51S154.63,199.19,154.63,429.22c0,8.01.23,15.96.67,23.85,4.44,78.71,121.86,75.05,121.86-3.78v-24.73c0-78.62,30.56-154.44,86.09-210.09,55.68-55.8,129.77-86.53,208.59-86.53,70.74,0,139.14,25.45,192.61,71.66,27.67,23.91,30.71,65.72,6.8,93.39-23.91,27.67-65.72,30.71-93.38,6.8-29.42-25.42-67.07-39.43-106.03-39.43-89.47,0-162.27,72.79-162.27,162.27v357.59c0,20.7,13.42,38.93,33.11,45.31.32.1.63.2.95.31,30.65,9.85,62-13.12,62-45.31v-363.29c0-36.51,29.2-66.77,65.71-67.04,36.8-.27,66.71,29.47,66.71,66.21v248.15c0,26.36,20.93,48.35,47.28,48.75,26.82.41,48.78-21.29,48.78-48.02v-242.65c0-2.96-.09-5.91-.24-8.86-1.75-36.41,26.27-67.41,62.7-69.3,36.55-1.88,67.66,26.18,69.55,62.69.27,5.12.4,10.33.4,15.47v39.58h0Z"/>
      <circle class="cls-3" cx="913.31" cy="621.9" r="60.95"/>
    </g>
    <g>
      <path class="cls-2" d="M123.47,1106.16c0,.39-.1.73-.3,1.03-.2.29-.55.53-1.06.7-.5.17-1.15.32-1.93.44-.78.12-1.8.18-3.06.18-1.16,0-2.15-.06-2.99-.18-.83-.12-1.49-.27-1.97-.44-.48-.17-.82-.4-1.02-.7-.2-.29-.3-.64-.3-1.03v-82.72h-.15l-33.47,83.09c-.15.34-.36.64-.62.88-.27.25-.66.45-1.17.62-.51.17-1.13.29-1.83.37-.71.07-1.55.11-2.53.11-1.03,0-1.91-.05-2.64-.15-.73-.1-1.35-.23-1.84-.4-.49-.17-.87-.38-1.14-.62-.27-.24-.45-.51-.55-.81l-32-83.09h-.07v82.72c0,.39-.1.73-.3,1.03-.2.29-.55.53-1.06.7-.5.17-1.16.32-1.97.44-.81.12-1.84.18-3.1.18s-2.22-.06-3.02-.18c-.81-.12-1.45-.27-1.93-.44-.48-.17-.81-.4-.98-.7-.18-.29-.26-.64-.26-1.03v-87.35c0-2.06.55-3.52,1.64-4.4,1.09-.88,2.31-1.32,3.65-1.32h7.75c1.59,0,2.98.15,4.17.44,1.19.29,2.24.76,3.13,1.39.89.64,1.64,1.44,2.24,2.42.6.98,1.12,2.13,1.57,3.45l27.16,68.78h.37l28.26-68.56c.55-1.47,1.14-2.72,1.79-3.74.65-1.03,1.36-1.85,2.13-2.46.77-.61,1.63-1.05,2.57-1.32.94-.27,2.04-.4,3.28-.4h8.13c.75,0,1.45.11,2.13.33s1.24.56,1.72,1.03c.47.47.86,1.05,1.16,1.76.3.71.45,1.58.45,2.61v87.35Z"/>
      <path class="cls-2" d="M387.34,1103.59c.39,1.08.6,1.95.62,2.61.02.66-.16,1.16-.55,1.5-.39.34-1.04.56-1.94.66-.91.1-2.12.15-3.63.15s-2.73-.04-3.63-.11c-.91-.07-1.59-.2-2.06-.37-.47-.17-.81-.4-1.03-.7-.22-.29-.43-.66-.62-1.1l-8.15-23.12h-39.49l-7.78,22.83c-.15.44-.34.82-.59,1.14-.25.32-.6.59-1.06.81-.47.22-1.13.38-1.98.48-.86.1-1.97.15-3.34.15s-2.58-.06-3.49-.18c-.91-.12-1.54-.35-1.91-.7-.37-.34-.54-.84-.51-1.5.02-.66.23-1.53.62-2.61l31.86-88.23c.2-.54.45-.98.77-1.32.32-.34.78-.61,1.39-.81.61-.2,1.39-.33,2.35-.4.95-.07,2.17-.11,3.63-.11,1.57,0,2.86.04,3.89.11,1.03.07,1.86.21,2.5.4.64.2,1.12.48,1.47.84.34.37.61.82.81,1.36l31.86,88.23ZM346.46,1025.71h-.07l-16.37,47.34h33.03l-16.59-47.34Z"/>
      <path class="cls-2" d="M638.26,1103.51c.64,1.08,1.01,1.93,1.14,2.57.12.64-.04,1.14-.48,1.5-.44.37-1.16.61-2.17.73-1,.12-2.34.18-4,.18-1.57,0-2.79-.04-3.67-.11-.88-.07-1.58-.21-2.09-.4-.51-.2-.91-.43-1.17-.7-.27-.27-.5-.62-.7-1.06l-21.14-37.8-21.36,37.8c-.25.44-.51.81-.81,1.1-.29.29-.7.53-1.21.7-.51.17-1.21.29-2.09.37-.88.07-2.06.11-3.52.11-1.61,0-2.89-.06-3.82-.18-.93-.12-1.58-.37-1.95-.73-.37-.37-.49-.87-.37-1.5.12-.64.5-1.49,1.14-2.57l25.91-43.67-24.74-42.2c-.59-1.08-.97-1.94-1.14-2.61-.17-.66-.06-1.17.33-1.54.39-.37,1.08-.6,2.06-.7.98-.1,2.32-.15,4.04-.15,1.47,0,2.67.04,3.6.11.93.07,1.66.2,2.2.37.54.17.93.42,1.17.73.24.32.51.67.81,1.06l20.4,35.53,20.26-35.53c.24-.39.49-.75.73-1.06.24-.32.6-.56,1.06-.73.46-.17,1.11-.29,1.95-.37.83-.07,1.96-.11,3.38-.11,1.52,0,2.75.06,3.71.18.95.12,1.64.36,2.06.7.42.34.57.84.48,1.5-.1.66-.44,1.53-1.03,2.61l-24.66,41.91,25.69,43.97Z"/>
      <path class="cls-2" d="M841.44,1110.77c0,.39-.1.73-.29,1.03-.2.29-.54.53-1.03.7-.49.17-1.14.32-1.94.44-.81.12-1.82.18-3.05.18s-2.18-.06-3.01-.18c-.83-.12-1.49-.27-1.98-.44-.49-.17-.83-.4-1.03-.7-.2-.29-.29-.64-.29-1.03v-91.16c0-.39.11-.73.33-1.03.22-.29.59-.53,1.1-.7.51-.17,1.17-.32,1.98-.44.81-.12,1.77-.18,2.9-.18,1.22,0,2.24.06,3.05.18.81.12,1.46.27,1.94.44.49.17.83.4,1.03.7.19.29.29.64.29,1.03v91.16Z"/>
      <path class="cls-2" d="M1123.59,1106.16c0,.39-.1.73-.3,1.03-.2.29-.55.53-1.06.7-.5.17-1.15.32-1.93.44-.78.12-1.8.18-3.06.18-1.16,0-2.15-.06-2.99-.18-.83-.12-1.49-.27-1.97-.44-.48-.17-.82-.4-1.02-.7-.2-.29-.3-.64-.3-1.03v-82.72h-.15l-33.47,83.09c-.15.34-.36.64-.62.88-.27.25-.66.45-1.17.62-.51.17-1.13.29-1.83.37-.71.07-1.55.11-2.53.11-1.03,0-1.91-.05-2.64-.15-.73-.1-1.35-.23-1.84-.4-.49-.17-.87-.38-1.14-.62-.27-.24-.45-.51-.55-.81l-32-83.09h-.07v82.72c0,.39-.1.73-.3,1.03-.2.29-.55.53-1.06.7-.5.17-1.16.32-1.97.44-.81.12-1.84.18-3.1.18s-2.22-.06-3.02-.18c-.81-.12-1.45-.27-1.93-.44-.48-.17-.81-.4-.98-.7-.18-.29-.26-.64-.26-1.03v-87.35c0-2.06.55-3.52,1.64-4.4,1.09-.88,2.31-1.32,3.65-1.32h7.75c1.59,0,2.98.15,4.17.44,1.19.29,2.24.76,3.13,1.39.89.64,1.64,1.44,2.24,2.42.6.98,1.12,2.13,1.57,3.45l27.16,68.78h.37l28.26-68.56c.55-1.47,1.14-2.72,1.79-3.74.65-1.03,1.36-1.85,2.13-2.46.77-.61,1.63-1.05,2.57-1.32.94-.27,2.04-.4,3.28-.4h8.13c.75,0,1.45.11,2.13.33.67.22,1.24.56,1.72,1.03.47.47.86,1.05,1.16,1.76.3.71.45,1.58.45,2.61v87.35Z"/>
    </g>
  </g>
</svg>