<?xml version="1.0" encoding="UTF-8"?>
<svg id="orbit" xmlns="http://www.w3.org/2000/svg" viewBox="0 0 3968 1024">
  <defs>
    <style>
      .cls-1 {
        fill: #fff;
        stroke-width: 0px;
      }
    </style>
  </defs>
  <path class="cls-1" d="M2070.25,121.4h434.05c107.4,0,174.95,24.36,220.35,69.76,27.68,27.68,47.61,67.54,47.61,120.69v2.21c0,91.9-55.36,148.38-138.41,177.16,99.65,28.79,163.88,81.94,163.88,188.24v2.22c0,124.01-101.87,214.81-297.86,214.81h-429.62V121.4ZM2435.65,425.89c55.36,0,81.94-18.82,81.94-53.15v-2.21c0-34.33-27.68-53.15-83.05-53.15h-111.84v108.51h112.94ZM2452.26,700.5c56.47,0,85.26-23.25,85.26-56.47v-2.21c0-33.22-27.68-56.47-84.15-56.47h-130.66v115.16h129.55Z"/>
  <path class="cls-1" d="M2844.94,121.4h259.1v775.09h-259.1V121.4Z"/>
  <path class="cls-1" d="M3390.58,340.63h-228.09V121.4h715.3v219.24h-228.1v555.85h-259.1V340.63Z"/>
  <path class="cls-1" d="M1854.77,633.46c94.12-45.4,153.23-124.52,153.23-237.46v-2.21c0-79.72-24.79-136.75-71.29-183.26-54.26-54.26-142.16-88.03-279.46-88.03h-216.87c3.22,33-7.24,75.98-29.94,123.76-26.9,56.63-74.44,121.43-133.44,190.06v461.17h259v-221h57.03l146.16,221h295.64l-180.06-264.04ZM1750,414.82c0,47.61-38.49,76.68-100.5,76.68h-113.5v-155h114.61c59.79,0,99.39,26.28,99.39,76.11v2.21Z"/>
  <path class="cls-1" d="M261.05,413.61c0,56.56-45.85,102.42-102.42,102.42s-102.42-45.85-102.42-102.42,45.85-102.42,102.42-102.42,102.42,45.85,102.42,102.42Z"/>
  <path class="cls-1" d="M1363.31,85.04c-47.53-64.19-200.61-37.92-390.71,54.5-92.06-42.8-202.42-51.72-312.96-17-212.24,66.66-333.16,267.33-294.81,467.61-142.63,154.05-211.65,291.88-164.32,355.8,42.34,57.19,168.44,42.56,329.85-26.63,89.4-38.33,189.63-93.39,292.47-162.31,0,0-57.22,83.34-158.6,147.21,73.66,17.57,154.54,15.58,235.52-9.86,206.62-64.9,326.72-256.8,297.55-451.71,143.77-154.78,213.51-293.45,166-357.62ZM315.8,842.79c-31.97-43.17-7.88-121.67,57.83-213.33.59,1.99.43,4.22,1.05,6.21l.66,2.12c28.53,90.81,86.49,163.42,160.33,211.79-106.49,35.85-187.99,36.29-219.88-6.79ZM833.11,675.06c-95.07,29.86-180.88-30.23-208.42-117.91l-.66-2.11c-27.21-86.62,8.09-183.6,102.12-213.13,95.08-29.86,180.88,30.23,208.41,117.91l.66,2.11c27.21,86.62-8.1,183.6-102.12,213.13ZM1009.3,159c107.01-36.21,189.69-37.02,221.69,6.2,30.85,41.66,8.8,116.44-51.83,204-31.41-91.44-92.34-163.81-169.86-210.2Z"/>
</svg>