<?xml version="1.0" encoding="UTF-8"?>
<svg id="Layer_1" data-name="Layer 1" xmlns="http://www.w3.org/2000/svg" viewBox="0 0 2278.57 719.71">
  <defs>
    <style>
      .cls-1 {
        fill: #fff;
        stroke-width: 0px;
      }
    </style>
  </defs>
  <g>
    <path class="cls-1" d="M199.68,171.63c-45.17,0-115.4,16.36-115.4,77.31,0,47.92,52.79,60.47,116.5,71.87,73.5,14.19,149.71,27.26,149.71,109.46s-87.64,106.7-150.82,106.7c-59.89,0-126.83-23.94-156.27-82.76l26.15-13.04c23.41,46.82,83.3,69.12,130.12,69.12s121.43-13.04,121.43-80.56c0-56.65-62.07-69.69-125.24-81.66-69.69-13.08-141.02-28.33-141.02-98.01-1.6-80.6,81.66-105.65,144.83-105.65,53.91,0,101.84,8.73,139.38,64.81l-23.99,14.14c-27.22-44.65-72.35-51.74-115.39-51.74Z"/>
    <path class="cls-1" d="M1395.68,465.1V149.86h28.86v381.12h-11.43l-257-314.71v314.71h-29.39V149.86h12.5l256.46,315.24Z"/>
    <path class="cls-1" d="M1793.34,437.35h-227.56l-41.41,93.63h-31.56l170.95-381.12h32.1l170.99,381.12h-31.61l-41.89-93.63ZM1679.54,178.19l-102.32,231.94h204.69l-102.37-231.94Z"/>
    <path class="cls-1" d="M2200.27,530.99l-131.76-144.3h-104.01v144.3h-29.34V149.86h167.66c82.19,0,125.2,59.36,125.2,118.67s-39.73,116.56-123.55,116.56l134.45,145.89h-38.65ZM2099.54,358.94c65.88,0,95.85-37.02,96.38-90.92,0-45.18-29.4-90.93-93.1-90.93h-138.32v181.86h135.04Z"/>
  </g>
  <g>
    <path class="cls-1" d="M724.71,492.15c-71.24,0-129.18-57.94-129.18-129.14s57.94-129.14,129.18-129.14,129.18,57.94,129.18,129.14-57.98,129.14-129.18,129.14ZM724.71,257.41c-58.25,0-105.6,47.39-105.6,105.6s47.35,105.6,105.6,105.6,105.61-47.39,105.61-105.6-47.39-105.6-105.61-105.6Z"/>
    <path class="cls-1" d="M724.71,668.99v-23.59c155.7,0,282.4-126.7,282.4-282.39h23.59c0,168.72-137.26,305.98-305.99,305.98Z"/>
    <path class="cls-1" d="M442.31,363.01h-23.59c0-168.73,137.26-305.98,305.98-305.98v23.59c-155.74,0-282.39,126.7-282.39,282.39Z"/>
    <path class="cls-1" d="M724.71,580.33v-23.59c106.8,0,193.74-86.89,193.74-193.73h23.54c0,119.83-97.49,217.32-217.28,217.32Z"/>
    <path class="cls-1" d="M530.98,363.01h-23.54c0-119.84,97.49-217.32,217.27-217.32v23.58c-106.79,0-193.73,86.88-193.73,193.73Z"/>
    <path class="cls-1" d="M768.15,363.01c0,23.99-19.46,43.48-43.45,43.48s-43.44-19.5-43.44-43.48,19.41-43.49,43.44-43.49,43.45,19.51,43.45,43.49Z"/>
    <g>
      <g>
        <path class="cls-1" d="M1029.28,278.96c3.19,11.61-3.59,23.58-15.16,26.77-11.57,3.19-23.54-3.63-26.78-15.2-3.15-11.57,3.63-23.54,15.21-26.73,11.57-3.19,23.54,3.58,26.73,15.16Z"/>
        <path class="cls-1" d="M462.09,435.5c3.19,11.57-3.63,23.54-15.16,26.73-11.62,3.19-23.54-3.59-26.78-15.16-3.15-11.62,3.64-23.59,15.21-26.78,11.57-3.19,23.54,3.64,26.73,15.21Z"/>
      </g>
      <g>
        <path class="cls-1" d="M985.78,185.07c6.74,9.97,4.21,23.45-5.72,30.23-9.93,6.74-23.41,4.21-30.24-5.72-6.74-9.93-4.16-23.45,5.77-30.23,9.88-6.75,23.41-4.21,30.19,5.72Z"/>
        <path class="cls-1" d="M499.59,516.49c6.74,9.93,4.17,23.46-5.68,30.19-9.98,6.79-23.49,4.21-30.28-5.72-6.74-9.98-4.21-23.45,5.72-30.24,9.93-6.74,23.45-4.17,30.24,5.76Z"/>
      </g>
      <g>
        <path class="cls-1" d="M907.67,105.44c9.8,6.96,12.1,20.53,5.1,30.28-6.91,9.8-20.48,12.15-30.32,5.15-9.71-6.92-12.06-20.53-5.1-30.32,6.97-9.71,20.53-12.06,30.32-5.1Z"/>
        <path class="cls-1" d="M566.98,585.21c9.75,6.91,12.06,20.48,5.14,30.23-7,9.8-20.56,12.1-30.36,5.15-9.8-6.96-12.1-20.53-5.1-30.32,6.91-9.76,20.48-12.05,30.32-5.05Z"/>
      </g>
      <g>
        <path class="cls-1" d="M815.94,60.58c11.48,3.46,18,15.51,14.5,27.05-3.41,11.47-15.55,18.04-27.08,14.53-11.43-3.5-18-15.6-14.54-27.13,3.46-11.44,15.61-17.95,27.13-14.45Z"/>
        <path class="cls-1" d="M646.07,623.91c11.44,3.5,18,15.56,14.54,27.04-3.46,11.52-15.61,17.99-27.13,14.5-11.53-3.46-18-15.51-14.54-27.09,3.46-11.43,15.6-17.95,27.13-14.45Z"/>
      </g>
    </g>
    <g>
      <g>
        <path class="cls-1" d="M942.55,302.9c2.31,8.29-2.56,16.84-10.81,19.14-8.29,2.27-16.84-2.56-19.15-10.85-2.27-8.29,2.56-16.9,10.85-19.16,8.29-2.26,16.8,2.57,19.11,10.87Z"/>
        <path class="cls-1" d="M536.83,414.84c2.31,8.29-2.56,16.89-10.82,19.16-8.33,2.26-16.85-2.57-19.15-10.86-2.27-8.29,2.56-16.88,10.85-19.15,8.29-2.26,16.8,2.57,19.11,10.86Z"/>
      </g>
      <g>
        <path class="cls-1" d="M911.44,235.73c4.87,7.09,3.01,16.75-4.08,21.59-7.05,4.84-16.76,3.06-21.63-4.08-4.79-7.09-2.97-16.8,4.17-21.63,7.04-4.83,16.71-2.96,21.55,4.13Z"/>
        <path class="cls-1" d="M563.69,472.78c4.79,7.09,2.97,16.8-4.08,21.63-7.14,4.83-16.8,2.97-21.63-4.12-4.83-7.1-3.01-16.76,4.08-21.59,7.1-4.83,16.76-3.01,21.63,4.08Z"/>
      </g>
      <g>
        <path class="cls-1" d="M855.58,178.77c7,4.97,8.69,14.68,3.68,21.68-4.92,6.96-14.68,8.65-21.68,3.68-7-5.01-8.64-14.72-3.68-21.72,5.01-6.97,14.68-8.65,21.68-3.64Z"/>
        <path class="cls-1" d="M611.88,521.94c6.97,4.96,8.64,14.68,3.68,21.63-4.97,7.05-14.71,8.69-21.72,3.69-7-4.97-8.65-14.68-3.64-21.73,4.96-6.92,14.63-8.56,21.68-3.59Z"/>
      </g>
      <g>
        <path class="cls-1" d="M789.97,146.67c8.24,2.44,12.86,11.08,10.38,19.33-2.44,8.25-11.08,12.9-19.33,10.42-8.25-2.49-12.95-11.18-10.42-19.42,2.44-8.21,11.13-12.86,19.37-10.33Z"/>
        <path class="cls-1" d="M668.45,549.65c8.2,2.48,12.9,11.12,10.42,19.33-2.48,8.24-11.17,12.9-19.41,10.38-8.25-2.44-12.86-11.08-10.38-19.37,2.49-8.21,11.17-12.82,19.37-10.33Z"/>
      </g>
    </g>
    <g>
      <path class="cls-1" d="M942.55,302.9c2.31,8.29-2.56,16.84-10.81,19.14-8.29,2.27-16.84-2.56-19.15-10.85-2.27-8.29,2.56-16.9,10.85-19.16,8.29-2.26,16.8,2.57,19.11,10.87Z"/>
      <path class="cls-1" d="M536.83,414.84c2.31,8.29-2.56,16.89-10.82,19.16-8.33,2.26-16.85-2.57-19.15-10.86-2.27-8.29,2.56-16.88,10.85-19.15,8.29-2.26,16.8,2.57,19.11,10.86Z"/>
    </g>
    <g>
      <path class="cls-1" d="M911.44,235.73c4.87,7.09,3.01,16.75-4.08,21.59-7.05,4.84-16.76,3.06-21.63-4.08-4.79-7.09-2.97-16.8,4.17-21.63,7.04-4.83,16.71-2.96,21.55,4.13Z"/>
      <path class="cls-1" d="M563.69,472.78c4.79,7.09,2.97,16.8-4.08,21.63-7.14,4.83-16.8,2.97-21.63-4.12-4.83-7.1-3.01-16.76,4.08-21.59,7.1-4.83,16.76-3.01,21.63,4.08Z"/>
    </g>
    <g>
      <path class="cls-1" d="M855.58,178.77c7,4.97,8.69,14.68,3.68,21.68-4.92,6.96-14.68,8.65-21.68,3.68-7-5.01-8.64-14.72-3.68-21.72,5.01-6.97,14.68-8.65,21.68-3.64Z"/>
      <path class="cls-1" d="M611.88,521.94c6.97,4.96,8.64,14.68,3.68,21.63-4.97,7.05-14.71,8.69-21.72,3.69-7-4.97-8.65-14.68-3.64-21.73,4.96-6.92,14.63-8.56,21.68-3.59Z"/>
    </g>
    <g>
      <path class="cls-1" d="M789.97,146.67c8.24,2.44,12.86,11.08,10.38,19.33-2.44,8.25-11.08,12.9-19.33,10.42-8.25-2.49-12.95-11.18-10.42-19.42,2.44-8.21,11.13-12.86,19.37-10.33Z"/>
      <path class="cls-1" d="M668.45,549.65c8.2,2.48,12.9,11.12,10.42,19.33-2.48,8.24-11.17,12.9-19.41,10.38-8.25-2.44-12.86-11.08-10.38-19.37,2.49-8.21,11.17-12.82,19.37-10.33Z"/>
    </g>
  </g>
</svg>