<?xml version="1.0" encoding="UTF-8"?>
<svg id="Logo_2" data-name="Logo 2" xmlns="http://www.w3.org/2000/svg" viewBox="0 0 672.07 250.09">
  <defs>
    <style>
      .cls-1 {
        fill: #fff;
        stroke-width: 0px;
      }
    </style>
  </defs>
  <g id="Text">
    <g id="Center">
      <path class="cls-1" d="M507.23,212.02h.69s.15,0,1.69-.12c1.07-.08,2.26-.4,3.55-.94,1.25-.54,2.33-1.24,3.21-2.09.34-.34.57-.6.7-.77,1.23-1.56,1.85-3.44,1.85-5.59s-.62-4.02-1.85-5.59c-.97-1.23-2.3-2.17-3.9-2.78-.63-.29-1.27-.52-1.9-.66-.62-.14-1.17-.25-1.64-.31-.47-.06-.86-.1-1.17-.12-.32-.02-.5-.03-.54-.03h-11v34h4v-15h.73l14.4,15h5.59l-14.4-15ZM507.92,208.02h-7v-11h7c.37,0,.76.04,1.15.11.36.08.78.17,1.27.27.45.09.9.24,1.35.42,2.18.92,3.24,2.46,3.24,4.7s-1.06,3.78-3.23,4.7c-.45.19-.9.33-1.35.42-.48.1-.9.19-1.25.27-.41.07-.8.11-1.17.11Z"/>
      <polygon class="cls-1" points="427.92 227.02 449.92 227.02 449.92 223.02 431.92 223.02 431.92 212.02 449.92 212.02 449.92 208.02 431.92 208.02 431.92 197.02 449.92 197.02 449.92 193.02 427.92 193.02 427.92 227.02"/>
      <polygon class="cls-1" points="358.92 197.02 367.92 197.02 367.92 227.02 371.92 227.02 371.92 197.02 380.92 197.02 380.92 193.02 358.92 193.02 358.92 197.02"/>
      <polygon class="cls-1" points="307.92 217.81 293.04 193.02 289.92 193.02 289.92 227.02 293.92 227.02 293.92 202.23 308.79 227.02 311.92 227.02 311.92 193.02 307.92 193.02 307.92 217.81"/>
      <polygon class="cls-1" points="220.92 227.02 242.92 227.02 242.92 223.02 224.92 223.02 224.92 212.02 242.92 212.02 242.92 208.02 224.92 208.02 224.92 197.02 242.92 197.02 242.92 193.02 220.92 193.02 220.92 227.02"/>
      <path class="cls-1" d="M168.22,194.14c-1.33-.58-2.54-.92-3.61-1-1.04-.08-1.61-.12-1.69-.12s-.65.04-1.69.12c-1.07.08-2.29.42-3.59.99-1.6.63-2.9,1.57-3.87,2.8-1.23,1.56-1.85,3.44-1.85,5.59v15c0,2.15.62,4.03,1.85,5.59.97,1.22,2.27,2.16,3.85,2.79,1.32.58,2.54.92,3.61,1,1.54.12,1.65.12,1.69.12s.15,0,1.69-.12c1.07-.08,2.29-.42,3.59-.99,1.6-.63,2.9-1.57,3.87-2.8,1.23-1.56,1.85-3.44,1.85-5.59v-.5h-4v.5c0,2.24-1.04,3.78-3.17,4.7-.91.38-1.77.61-2.56.68-.78.08-1.21.11-1.26.12-.08,0-.5-.04-1.29-.12-.79-.07-1.65-.3-2.55-.68-2.14-.92-3.18-2.46-3.18-4.7v-15c0-2.24,1.04-3.78,3.17-4.7.91-.38,1.77-.61,2.55-.68.78-.07,1.21-.11,1.26-.12.08,0,.51.04,1.29.12.79.08,1.65.31,2.55.68,2.14.92,3.18,2.46,3.18,4.7v.5h4v-.5c0-2.15-.62-4.02-1.85-5.59-.97-1.22-2.27-2.16-3.85-2.79Z"/>
    </g>
    <g id="Spirit">
      <polygon class="cls-1" points="536.85 35.82 536.85 132.48 546.85 132.48 546.85 45.82 648.44 45.82 648.44 35.82 536.85 35.82"/>
      <rect class="cls-1" x="464.67" y="40.82" width="10" height="91.66"/>
      <g>
        <polygon class="cls-1" points="422.98 91.65 422.98 81.65 377.76 81.65 419.54 135.54 427.45 129.41 398.17 91.65 422.98 91.65"/>
        <polygon class="cls-1" points="423.49 35.82 347.43 35.82 347.43 132.48 357.43 132.48 357.43 45.82 423.49 45.82 423.49 35.82"/>
      </g>
      <rect class="cls-1" x="297.14" y="40.82" width="10" height="91.66"/>
      <polygon class="cls-1" points="263.41 81.65 202.35 81.65 202.35 40.82 192.35 40.82 192.35 132.48 202.35 132.48 202.35 91.65 273.41 91.65 273.41 40.82 263.41 40.82 263.41 81.65"/>
      <g>
        <polygon class="cls-1" points="96.17 81.65 96.17 91.65 161.77 91.65 162.17 127.48 25.11 127.48 25.11 137.48 172.29 137.48 171.66 81.65 96.17 81.65"/>
        <rect class="cls-1" x="96.17" y="35.82" width="71.06" height="10"/>
      </g>
    </g>
  </g>
</svg>